<?xml version="1.0" encoding="UTF-8"?>
<svg id="Layer_2" data-name="Layer 2" xmlns="http://www.w3.org/2000/svg" viewBox="0 0 178.9 208.84">
  <defs>
    <style>
      .cls-1 {
        fill: #ffd209;
      }
    </style>
  </defs>
  <g id="_ëÎÓÈ_1" data-name="ëÎÓÈ 1">
    <path class="cls-1" d="M178.9,0c-4.48,24.72-13.81,47.73-26.98,68.05-9.33,14.44-17.67,29.51-24.31,45.36-10.28,24.63-18.15,49.25-23.5,73.87-2.74,12.57-13.88,21.56-26.76,21.56H0v-73.37c3.12.31,6.03,1.39,8.52,3.15,8.63,6.14,19.25,8.72,29.87,7.24,18.76-2.58,33.34-17.56,35.44-36.44.17-1.54.26-3.08.26-4.61,0-10.25-3.74-20.2-10.59-27.84-7.89-8.8-19.18-13.84-30.99-13.84-8.39,0-16.46,2.49-23.35,7.2-2.8,1.91-5.93,3.12-9.16,3.52V0h73.9c-.3,3.1-1.37,6-3.13,8.47-6.16,8.65-8.74,19.27-7.26,29.89,2.58,18.76,17.57,33.35,36.47,35.44,11.82,1.31,23.65-2.45,32.43-10.33,8.8-7.89,13.85-19.18,13.85-30.99,0-8.4-2.5-16.48-7.21-23.36-1.9-2.79-3.1-5.91-3.51-9.13h43.36Z"/>
  </g>
</svg>