<?xml version="1.0" encoding="UTF-8"?>
<svg id="Layer_2" data-name="Layer 2" xmlns="http://www.w3.org/2000/svg" viewBox="0 0 181.93 283.48">
  <defs>
    <style>
      .cls-1 {
        fill: #ffd209;
      }
    </style>
  </defs>
  <g id="_ëÎÓÈ_1" data-name="ëÎÓÈ 1">
    <path class="cls-1" d="M108.1,99.98c-1.32,11.82,2.45,23.64,10.32,32.44,7.89,8.81,19.17,13.86,30.98,13.86,8.37,0,16.46-2.5,23.38-7.23,2.8-1.91,5.94-3.12,9.16-3.52v73.86h-75.96c-.25,0-.48,0-.73.03-2.35.17-4.58,1.21-6.23,2.89-.84.85-1.49,1.85-1.94,2.92-.51,1.21-.78,2.52-.76,3.84.01.66.04,1.31.1,1.97.44,5.54,2.36,10.93,5.6,15.68,3.39,4.96,5.18,10.76,5.18,16.81,0,8.5-3.64,16.65-9.97,22.32-6.44,5.76-14.75,8.4-23.43,7.44-13.79-1.53-24.32-11.77-26.2-25.48-1.06-7.68.78-15.34,5.21-21.56,3.15-4.45,4.97-9.67,5.31-15.21.04-.62.07-1.22.07-1.85,0-1.41-.29-2.75-.82-3.96-1.41-3.23-4.48-5.54-8.12-5.81-.25-.02-.48-.03-.74-.03H1.3c-.86-7.28-1.3-14.68-1.3-22.19v-.36C.19,88.13,76.57,7.26,173.49,0h8.44v73.9c-3.14-.3-6.05-1.37-8.54-3.15-8.59-6.12-19.2-8.7-29.84-7.24-18.8,2.59-33.38,17.58-35.46,36.47Z"/>
  </g>
</svg>