<?xml version="1.0" encoding="UTF-8"?>
<svg id="Layer_2" data-name="Layer 2" xmlns="http://www.w3.org/2000/svg" viewBox="0 0 252.99 208.84">
  <defs>
    <style>
      .cls-1 {
        fill: #ffd209;
      }
    </style>
  </defs>
  <g id="_ëÎÓÈ_1" data-name="ëÎÓÈ 1">
    <path class="cls-1" d="M252.8,108.15c-1.53,13.78-11.78,24.31-25.48,26.2-7.68,1.06-15.33-.78-21.56-5.21-4.46-3.16-9.7-4.98-15.24-5.32-.6-.04-1.21-.06-1.81-.07-1.44,0-2.78.3-4,.84-3.42,1.51-5.81,4.91-5.81,8.84v75.41h-77.36c-12.88,0-24.01-8.98-26.75-21.56-5.36-24.64-13.22-49.24-23.52-73.87-6.64-15.88-15.01-30.98-24.34-45.43C13.79,47.67,4.49,24.68,0,0h43.41c-.31,3.1-1.38,6.01-3.13,8.49-6.15,8.64-8.73,19.26-7.24,29.87,2.57,18.76,17.56,33.35,36.43,35.44,11.84,1.31,23.67-2.45,32.47-10.34,8.79-7.88,13.84-19.17,13.84-30.98,0-8.4-2.5-16.48-7.21-23.36-1.9-2.79-3.1-5.91-3.51-9.13h73.84v75.96c0,2.59,1.06,5.13,2.92,6.95.86.84,1.84,1.49,2.9,1.94h0c.13.07.26.11.4.16.02,0,.04.02.05.02.15.06.29.11.44.15.14.05.3.1.45.13.11.03.23.06.34.08.26.06.52.1.8.14.09.02.2.03.3.03.06.01.11.02.17.02.25.03.49.04.74.04h.18c.32-.01.64-.02.96-.04.27,0,.52-.03.79-.05.06,0,.12-.01.19-.02,5.55-.44,10.94-2.36,15.72-5.6,4.95-3.4,10.75-5.18,16.79-5.18,8.51,0,16.65,3.64,22.33,9.98,5.76,6.43,8.39,14.75,7.44,23.43Z"/>
  </g>
</svg>