<?xml version="1.0" encoding="UTF-8"?>
<svg id="Layer_2" data-name="Layer 2" xmlns="http://www.w3.org/2000/svg" xmlns:xlink="http://www.w3.org/1999/xlink" viewBox="0 0 754.78 843.77">
  <defs>
    <style>
      .cls-1 {
        fill: none;
      }

      .cls-2 {
        fill: #9b9b9f;
      }

      .cls-3 {
        fill: #ffd209;
      }

      .cls-4 {
        clip-path: url(#clippath);
      }
    </style>
    <clipPath id="clippath">
      <rect class="cls-1" x="104.01" y="175.4" width="511.8" height="511.8"/>
    </clipPath>
  </defs>
  <g id="_ëÎÓÈ_1" data-name="ëÎÓÈ 1">
    <g>
      <path class="cls-3" d="M388.07,15.83v122.61c0,5.9-4.78,10.68-10.68,10.68s-10.68-4.78-10.68-10.68V15.83c0-5.9,4.78-10.68,10.68-10.68,2.95,0,5.62,1.19,7.55,3.13,1.93,1.93,3.13,4.6,3.13,7.55Z"/>
      <path class="cls-3" d="M377.39,154.26c-8.73,0-15.83-7.1-15.83-15.83V15.83c0-8.73,7.1-15.83,15.83-15.83,4.23,0,8.2,1.65,11.19,4.63,2.99,2.99,4.63,6.96,4.63,11.19v122.61c0,8.73-7.1,15.83-15.83,15.83ZM377.39,10.29c-3.05,0-5.54,2.48-5.54,5.54v122.61c0,3.05,2.48,5.54,5.54,5.54s5.54-2.48,5.54-5.54V15.83c0-1.48-.58-2.87-1.62-3.92-1.04-1.05-2.44-1.62-3.92-1.62Z"/>
    </g>
    <g>
      <path class="cls-3" d="M232.28,196.27c-4.78,3.46-11.46,2.41-14.93-2.36l-72.06-99.19c-3.47-4.77-2.41-11.45,2.36-14.92,1.9-1.38,4.1-2.04,6.27-2.04,3.3,0,6.56,1.52,8.65,4.4l72.07,99.19c3.47,4.77,2.41,11.45-2.36,14.92Z"/>
      <path class="cls-3" d="M226.02,203.44c-4.9,0-9.74-2.26-12.83-6.51l-72.06-99.2c-5.13-7.05-3.56-16.97,3.49-22.1,2.73-1.98,5.94-3.02,9.3-3.02,5.06,0,9.85,2.44,12.81,6.53l72.06,99.19c2.48,3.42,3.49,7.6,2.83,11.77-.66,4.17-2.91,7.84-6.32,10.33h0c-2.8,2.04-6.05,3.01-9.28,3.01ZM153.92,82.9c-1.17,0-2.3.37-3.25,1.06-2.47,1.79-3.02,5.26-1.22,7.73l72.06,99.2c1.79,2.47,5.27,3.02,7.74,1.22,1.19-.87,1.98-2.15,2.21-3.61.23-1.46-.12-2.92-.99-4.12l-72.07-99.2c-1.05-1.45-2.69-2.28-4.49-2.28Z"/>
    </g>
    <g>
      <path class="cls-3" d="M142.59,319.71c-1.82,5.61-7.85,8.68-13.46,6.86l-116.61-37.89c-5.61-1.82-8.68-7.84-6.86-13.46,1.47-4.52,5.66-7.38,10.16-7.38,1.09,0,2.21.17,3.3.53l116.61,37.89c5.61,1.82,8.68,7.85,6.86,13.46Z"/>
      <path class="cls-3" d="M132.42,332.23c-1.62,0-3.26-.25-4.88-.78l-116.61-37.89c-8.29-2.69-12.85-11.64-10.16-19.94,2.12-6.54,8.17-10.94,15.05-10.94,1.66,0,3.3.26,4.89.78l116.61,37.89c8.3,2.69,12.85,11.64,10.16,19.94h0c-2.17,6.68-8.39,10.94-15.06,10.94ZM15.82,272.98c-2.4,0-4.52,1.54-5.26,3.83-.94,2.91.65,6.04,3.55,6.98l116.61,37.89c2.9.94,6.03-.65,6.98-3.55h0c.94-2.91-.65-6.04-3.55-6.98l-116.61-37.89c-.56-.18-1.14-.27-1.71-.27Z"/>
    </g>
    <g>
      <path class="cls-3" d="M749.64,278.53c0,4.5-2.87,8.68-7.38,10.15l-116.61,37.89c-5.61,1.82-11.63-1.25-13.46-6.86-1.82-5.61,1.25-11.64,6.86-13.46l116.61-37.89c5.61-1.82,11.64,1.25,13.46,6.86.35,1.1.53,2.21.53,3.31Z"/>
      <path class="cls-3" d="M622.36,332.23c-6.67,0-12.89-4.25-15.07-10.93-1.31-4.02-.97-8.31.95-12.08,1.92-3.77,5.19-6.56,9.21-7.87l116.61-37.89c4.02-1.31,8.31-.97,12.08.95,3.77,1.92,6.56,5.19,7.87,9.21.52,1.6.78,3.25.78,4.9,0,6.87-4.4,12.92-10.94,15.04l-116.61,37.89c-1.62.52-3.26.77-4.87.77ZM738.96,272.98c-.58,0-1.15.09-1.72.27l-116.61,37.89c-1.41.46-2.55,1.43-3.22,2.75-.67,1.32-.79,2.82-.33,4.23.94,2.9,4.07,4.49,6.98,3.55l116.61-37.89c2.29-.74,3.83-2.86,3.83-5.26,0-.58-.09-1.16-.28-1.73-.45-1.4-1.43-2.54-2.75-3.21-.79-.4-1.65-.61-2.51-.61Z"/>
    </g>
    <g>
      <path class="cls-3" d="M611.53,88.44c0,2.18-.66,4.37-2.04,6.27l-72.07,99.19c-3.47,4.77-10.15,5.83-14.92,2.36-4.78-3.47-5.83-10.15-2.36-14.92l72.07-99.19c3.46-4.77,10.15-5.83,14.92-2.36,2.88,2.09,4.4,5.35,4.4,8.65Z"/>
      <path class="cls-3" d="M528.76,203.44c-3.22,0-6.47-.98-9.28-3.01-3.42-2.49-5.67-6.15-6.33-10.33-.66-4.18.34-8.36,2.83-11.78l72.07-99.19c5.13-7.06,15.04-8.63,22.1-3.5,4.09,2.97,6.53,7.76,6.53,12.82,0,3.36-1.05,6.58-3.02,9.29l-72.06,99.19c-3.1,4.26-7.93,6.52-12.83,6.52ZM600.86,82.9c-1.71,0-3.4.79-4.49,2.28l-72.07,99.19c-.87,1.2-1.22,2.66-.99,4.12.23,1.46,1.02,2.74,2.22,3.62,2.47,1.79,5.94,1.24,7.74-1.23l72.07-99.19c.69-.95,1.06-2.07,1.06-3.24,0-1.8-.83-3.44-2.28-4.49-.98-.71-2.12-1.05-3.25-1.05Z"/>
    </g>
    <g>
      <path class="cls-2" d="M465.54,688.26c0,4.46-3.62,8.09-8.07,8.09h-159.55c-4.46,0-8.09-3.63-8.09-8.09s3.63-8.06,8.09-8.06h159.55c4.46,0,8.07,3.62,8.07,8.06Z"/>
      <path class="cls-2" d="M457.47,701.49h-159.55c-7.3,0-13.23-5.94-13.23-13.23s5.94-13.2,13.23-13.2h159.55c7.29,0,13.22,5.92,13.22,13.2s-5.93,13.23-13.22,13.23ZM297.92,685.35c-1.62,0-2.94,1.31-2.94,2.91s1.32,2.94,2.94,2.94h159.55c1.61,0,2.93-1.32,2.93-2.94s-1.31-2.91-2.93-2.91h-159.55Z"/>
    </g>
    <g>
      <path class="cls-2" d="M465.54,730.72c0,4.46-3.62,8.07-8.07,8.07h-159.55c-4.46,0-8.09-3.62-8.09-8.07s3.63-8.07,8.09-8.07h159.55c4.46,0,8.07,3.63,8.07,8.07Z"/>
      <path class="cls-2" d="M457.47,743.94h-159.55c-7.3,0-13.23-5.93-13.23-13.22s5.94-13.22,13.23-13.22h159.55c7.29,0,13.22,5.93,13.22,13.22s-5.93,13.22-13.22,13.22ZM297.92,727.8c-1.62,0-2.94,1.31-2.94,2.93s1.32,2.93,2.94,2.93h159.55c1.61,0,2.93-1.31,2.93-2.93s-1.31-2.93-2.93-2.93h-159.55Z"/>
    </g>
    <g>
      <path class="cls-2" d="M465.54,773.16c0,4.46-3.62,8.09-8.07,8.09h-159.55c-4.46,0-8.09-3.63-8.09-8.09s3.63-8.06,8.09-8.06h159.55c4.46,0,8.07,3.62,8.07,8.06Z"/>
      <path class="cls-2" d="M457.47,786.39h-159.55c-7.3,0-13.23-5.94-13.23-13.23s5.94-13.2,13.23-13.2h159.55c7.29,0,13.22,5.92,13.22,13.2s-5.93,13.23-13.22,13.23ZM297.92,770.24c-1.62,0-2.94,1.31-2.94,2.91s1.32,2.94,2.94,2.94h159.55c1.61,0,2.93-1.32,2.93-2.94s-1.31-2.91-2.93-2.91h-159.55Z"/>
    </g>
    <g>
      <path class="cls-2" d="M446.68,813.67l-33.91,17.18c-10.18,5.15-20.78,7.78-31.46,7.78h-6.95c-10.61,0-21.12-2.58-31.22-7.66l-34.43-17.29c-1.33-.66-1.67-2.58-1.31-4.04.29-1.28,1.09-2.08,2.07-2.08h136.47c.99,0,1.76.78,2.07,2.07.34,1.46,0,3.38-1.31,4.06Z"/>
      <path class="cls-2" d="M381.31,843.77h-6.95c-11.41,0-22.69-2.76-33.53-8.21l-34.43-17.3c-3.34-1.67-5-5.71-4.01-9.82.84-3.62,3.68-6.04,7.07-6.04h136.47c3.41,0,6.19,2.36,7.07,6,.96,4.11-.67,8.14-3.95,9.84l-.04.02-33.91,17.18c-10.93,5.53-22.3,8.33-33.79,8.33ZM318.22,812.69l27.22,13.68c9.4,4.72,19.12,7.11,28.92,7.11h6.95c9.86,0,19.66-2.43,29.14-7.22l26.78-13.56h-119.01ZM311.01,809.07h.01s0,0-.01,0Z"/>
    </g>
    <g class="cls-4">
      <g>
        <path class="cls-3" d="M263.38,620.91c-5.51-25.35-13.6-50.66-24.19-76-16.22-38.86-45.52-70.38-52.15-113.6h-13.57c6.45,47.64,38.45,82.19,56.37,124.68,11.32,27.08,19.96,54.13,25.85,81.22,3.01,13.82,15.25,23.7,29.41,23.7h85.04v-17.81h-79.24c-13.25,0-24.7-9.24-27.52-22.18Z"/>
        <path class="cls-3" d="M538.75,498.23c-87.98,140.58,6.27,148.86-155.84,144.85v17.81s85.04,0,85.04,0c14.16,0,26.41-9.88,29.42-23.7,5.88-27.07,14.52-54.13,25.83-81.21,17.93-42.48,49.96-77.03,56.39-124.68h-13.69c-4.81,24.26-14.16,46.87-27.16,66.93Z"/>
        <path class="cls-3" d="M370.13,200.39v-12.09c-118.83.91-213.77,111.45-198.58,230.2h13.49c-.3-.74-.37-1.5-.29-2.26h-.11c-14.15-110.86,74.12-214.02,185.01-215.43.16-.15.32-.29.48-.42Z"/>
        <path class="cls-3" d="M392.3,188.3h-9.39v12.34c111.25,1.61,199.53,104.02,185.39,215.6h-.04c.16.75.26,1.49.13,2.26h13.12c14.48-116.35-73.75-222.53-189.2-230.2Z"/>
      </g>
    </g>
  </g>
</svg>