<?xml version="1.0" encoding="UTF-8"?>
<svg id="Layer_2" data-name="Layer 2" xmlns="http://www.w3.org/2000/svg" viewBox="0 0 256.04 283.48">
  <defs>
    <style>
      .cls-1 {
        fill: #ffd209;
      }
    </style>
  </defs>
  <g id="_ëÎÓÈ_1" data-name="ëÎÓÈ 1">
    <path class="cls-1" d="M256.04,186.84v.02c.02,7.63-.42,15.15-1.29,22.54h-47.22c-.25,0-.49,0-.73.03-2.35.17-4.58,1.21-6.23,2.89-.84.85-1.52,1.84-1.97,2.92-.52,1.2-.78,2.52-.73,3.85,0,.65.04,1.31.1,1.96.44,5.53,2.35,10.93,5.6,15.68,3.39,4.96,5.17,10.76,5.17,16.81,0,8.5-3.63,16.65-9.98,22.32-6.42,5.76-14.73,8.4-23.4,7.44-13.8-1.53-24.34-11.77-26.23-25.48-1.05-7.68.79-15.34,5.22-21.56,3.16-4.44,4.99-9.67,5.32-15.21.04-.62.06-1.24.06-1.87,0-1.4-.3-2.74-.82-3.94-1.4-3.22-4.49-5.54-8.11-5.81-.25-.02-.5-.03-.75-.03h-75.94v-75.95c0-2.59-1.05-5.1-2.89-6.91-.85-.85-1.85-1.52-2.92-1.99-1.2-.52-2.51-.78-3.84-.77-.66,0-1.32.04-1.97.09-5.59.44-10.98,2.36-15.72,5.61-4.99,3.39-10.79,5.19-16.82,5.19-8.5,0-16.64-3.64-22.32-9.98C1.88,118.24-.78,109.93.2,101.25c1.52-13.8,11.76-24.34,25.48-26.23,7.7-1.05,15.34.8,21.53,5.21,4.48,3.18,9.72,5,15.27,5.33.61.04,1.22.06,1.84.06,1.38,0,2.73-.27,3.97-.82,1.09-.47,2.09-1.14,2.96-2.01,1.84-1.82,2.85-4.24,2.85-6.83V0h8.55c97.12,7.26,173.21,87.76,173.39,186.84Z"/>
  </g>
</svg>